<?xml version="1.0" encoding="UTF-8"?>
<svg id="Layer_1" data-name="Layer 1" xmlns="http://www.w3.org/2000/svg" viewBox="0 0 16 16">
  <defs>
    <style>
      .cls-1 {
        fill: #f2f2f2;
      }

      .cls-2 {
        fill: #477998;
      }

      .cls-3 {
        fill: #4d84a0;
      }
    </style>
  </defs>
  <rect id="bg" class="cls-1" width="16" height="16" rx="2" ry="2"/>
  <g>
    <path class="cls-2" d="m3.41,14.1c-.3,0-.54-.09-.7-.26s-.24-.41-.24-.72V3.31c0-.32.09-.56.26-.73s.41-.25.72-.25c.27,0,.49.05.64.15.16.1.3.28.43.53l4.03,7.46h-.52l4.03-7.46c.13-.25.27-.43.42-.53.15-.1.36-.15.64-.15.3,0,.54.08.7.25s.25.41.25.73v9.81c0,.3-.08.54-.24.72-.16.17-.39.26-.71.26s-.54-.09-.7-.26-.24-.41-.24-.72v-7.55h.36l-3.43,6.25c-.11.18-.22.32-.34.41-.12.09-.28.13-.49.13s-.38-.05-.51-.14c-.13-.09-.24-.23-.34-.4l-3.46-6.27h.39v7.57c0,.3-.08.54-.24.72s-.39.26-.71.26Z"/>
    <path class="cls-3" d="m2.88,13.67c-.3,0-.54-.09-.7-.26s-.24-.41-.24-.72V2.88c0-.32.09-.56.26-.73s.41-.25.72-.25c.27,0,.49.05.64.15.16.1.3.28.43.53l4.03,7.46h-.52l4.03-7.46c.13-.25.27-.43.42-.53.15-.1.36-.15.64-.15.3,0,.54.08.7.25s.25.41.25.73v9.81c0,.3-.08.54-.24.72-.16.17-.39.26-.71.26s-.54-.09-.7-.26-.24-.41-.24-.72v-7.55h.36l-3.43,6.25c-.11.18-.22.32-.34.41-.12.09-.28.13-.49.13s-.38-.05-.51-.14c-.13-.09-.24-.23-.34-.4l-3.46-6.27h.39v7.57c0,.3-.08.54-.24.72s-.39.26-.71.26Z"/>
  </g>
</svg>